<svg width="113" height="15" viewBox="0 0 113 15" fill="none" xmlns="http://www.w3.org/2000/svg">
<path d="M0.984 7.744C0.708 7.744 0.78 7.696 0.936 7.564C1.296 7.324 1.716 7.3 2.184 7.276C3.288 7.192 4.356 7 5.484 6.988C5.76 6.976 6.096 7 6.408 7C6.6 7 6.78 7 6.936 6.964C7.14 6.94 7.548 6.916 7.956 6.916C8.256 6.916 8.592 6.928 8.832 6.964C8.964 7.036 9.336 7.06 9.492 7.024C9.792 6.916 10.224 7.012 9.756 7.276C9.588 7.36 9.54 7.288 9.348 7.312C9.168 7.336 9.24 7.528 9.012 7.468C8.904 7.42 8.328 7.396 7.788 7.396C7.272 7.396 6.768 7.42 6.624 7.504C6.252 7.732 4.656 7.672 4.2 7.768C3.636 7.864 3.072 7.948 2.508 7.9C2.196 7.876 1.692 8.116 1.332 8.116C1.236 8.116 1.14 8.104 1.068 8.056C0.876 7.948 1.332 7.744 0.984 7.744ZM10.176 7.384C10.02 7.36 10.116 7.192 10.14 7.108C10.536 7.156 10.716 7.18 10.716 7.216C10.716 7.264 10.524 7.312 10.176 7.384ZM12.1968 8.068C12.1968 7.636 12.3048 7.048 12.3888 6.832C12.4488 6.628 12.5208 6.328 12.6288 6.16C12.7488 6.028 12.7248 5.872 12.7968 5.704C13.0128 5.248 13.4928 4.564 13.8408 4.252C14.1168 4.012 14.4648 3.76 14.7168 3.484C14.8248 3.364 15.4848 2.956 15.6168 3.076C15.6048 3.136 15.5088 3.16 15.5328 3.184C15.5808 3.22 15.6168 3.208 15.6648 3.208C15.7248 3.172 15.7728 2.92 15.7728 3.1C15.7728 3.1 16.0128 3.016 16.0488 3.028C16.1928 3.04 16.3848 3.028 16.4088 3.184L16.3008 3.136C16.2648 3.148 16.3608 3.196 16.3248 3.232C16.1208 3.232 15.9168 3.304 15.7368 3.412C15.6168 3.496 15.5328 3.724 15.4008 3.748C15.1968 3.784 15.1368 3.76 15.0288 3.976C14.9448 4.132 14.8728 4.156 14.9208 4.336C14.8488 4.336 14.8248 4.324 14.7648 4.3C14.7168 4.384 14.6208 4.42 14.5488 4.468C14.4648 4.54 14.5488 4.624 14.4528 4.708C14.3328 4.828 14.2848 4.9 14.1288 4.864C14.1288 5.032 14.0568 5.188 13.9608 5.32C13.8408 5.488 13.7208 5.62 13.5768 5.788C13.4328 5.968 13.2168 6.568 13.1808 6.748C13.1448 6.868 13.0248 6.892 13.0608 7C13.0968 7.12 12.9168 7.96 12.9048 8.092C12.8448 8.524 12.9768 8.692 13.0968 9.04C13.2528 9.532 13.8048 9.76 14.3208 9.76C14.5608 9.76 14.7888 9.712 14.9688 9.616C15.1128 9.532 15.2568 9.652 15.3888 9.52C15.4968 9.412 15.6648 9.424 15.8208 9.436C15.9288 9.448 16.0008 9.46 16.0248 9.364C16.0488 9.304 16.2168 9.436 16.2528 9.448C16.2528 9.28 16.6848 9.196 16.8168 9.208C16.8168 9.124 16.9008 9.076 16.9848 9.076C17.0568 9.076 17.1288 9.112 17.1288 9.184C16.9248 9.196 16.8168 9.208 16.7928 9.424C16.7208 9.412 16.6728 9.364 16.6128 9.34C16.6008 9.472 16.5768 9.544 16.4448 9.532C16.2768 9.508 16.3248 9.616 16.2048 9.688C16.1568 9.736 16.0728 9.7 16.0008 9.736C15.9528 9.784 15.8928 9.82 15.8208 9.856C15.8208 9.988 15.7248 9.964 15.6168 10.024C15.4128 10.156 15.1608 10.18 14.9208 10.264C14.6088 10.36 14.2848 10.408 13.9488 10.36C13.7688 10.336 13.1328 10.276 13.1328 10.036L12.8808 9.724C12.7008 9.772 12.5208 9.436 12.4008 9.316C12.3048 9.22 12.2928 9.088 12.2928 8.944C12.2928 8.776 12.3168 8.596 12.2568 8.476C12.2208 8.38 12.1968 8.236 12.1968 8.068ZM15.5328 3.916C15.5328 4.012 15.4128 3.904 15.4368 3.784C15.6528 3.736 15.9288 3.688 16.2528 3.412C16.3248 3.364 16.5048 3.16 16.6368 3.16C16.6848 3.16 16.7208 3.196 16.7448 3.28C16.7928 3.328 16.8888 3.256 16.9848 3.256C17.0328 3.256 17.0808 3.268 17.1288 3.304C17.3088 3.436 17.2608 3.532 17.3328 3.736C17.5968 3.652 17.4768 3.844 17.4528 4.024V4.204C17.3568 4.216 17.3208 4.3 17.2248 4.3C17.2248 4.42 17.1168 4.432 17.0688 4.54C17.0448 4.6 17.2368 4.42 17.3088 4.456C17.3088 4.6 17.0208 4.684 16.9248 4.672C16.9248 4.456 16.9128 4.276 16.9488 4.072C16.8408 4 16.8768 3.892 16.7448 3.94C16.6368 3.892 16.5408 3.832 16.4688 3.76C16.3488 3.676 16.4328 3.748 16.3368 3.76C16.2048 3.772 16.2648 3.64 16.1448 3.7C15.9768 3.808 15.7488 3.844 15.5328 3.832C15.5088 3.856 15.5328 3.88 15.5328 3.916ZM12.9528 9.964C12.8448 9.964 12.8208 9.88 12.8208 9.784C12.8808 9.832 12.9288 9.88 12.9528 9.964ZM18.0568 7.864C18.0568 7.768 18.0808 7.66 18.1288 7.516C18.3328 6.892 18.7168 6.328 19.0768 5.752C19.5448 4.984 20.2768 4.3 20.7568 3.52C20.8288 3.412 21.5608 2.344 21.7168 2.344C21.9328 2.344 22.0408 2.608 22.1248 2.524C22.2688 2.38 22.1848 2.056 22.3528 2.008C22.6168 1.936 22.2928 2.656 22.2448 2.728C22.0528 3.04 21.6208 3.496 21.4048 3.856L19.6048 6.184C19.2688 6.7 18.8488 7.24 18.6088 7.804C18.8008 7.852 19.1008 7.792 19.3048 7.696C19.5088 7.6 19.8448 7.552 20.2048 7.552C21.0568 7.552 22.1488 7.804 22.5808 8.236C23.1808 8.836 24.0808 9.136 24.4768 9.292C25.5208 9.628 26.7208 9.772 27.8008 9.772H28.1488C28.1488 9.292 27.9688 9.46 27.8608 9.028C27.7648 8.632 27.6208 8.296 27.6328 7.852C27.7648 7.768 27.8968 7.636 28.0168 7.636C28.1128 7.636 28.6048 8.044 28.6528 8.104C28.7008 8.176 28.6768 8.236 28.6528 8.284C28.5928 8.404 28.3768 8.356 28.3768 8.44C28.3888 8.788 28.4488 8.776 28.5328 8.956C28.6048 9.088 28.6528 9.328 28.6528 9.568C28.6528 9.916 28.5448 10.264 28.1728 10.336C27.9208 10.396 27.6808 10.432 27.4528 10.432C27.2248 10.432 26.9848 10.396 26.7328 10.336C24.8968 9.88 23.6248 9.904 22.1008 8.512C21.7048 8.152 21.0928 8.032 20.4928 8.032C20.1568 8.032 19.8208 8.068 19.5328 8.128C19.3648 8.176 18.8968 8.32 18.5968 8.32C18.3448 8.32 18.0568 8.128 18.0568 7.864ZM28.8328 8.26C28.8088 8.236 28.8208 8.2 28.8568 8.188C29.0608 8.116 29.0848 8.32 28.9648 8.32C28.9288 8.32 28.8808 8.296 28.8328 8.26ZM21.9208 2.236C21.9088 2.272 21.8728 2.296 21.8368 2.296C21.7528 2.296 21.6568 2.224 21.7408 2.188C21.7888 2.164 21.8008 2.044 21.8728 2.068C21.9328 2.092 21.9448 2.116 21.9208 2.236ZM31.0883 9.604C30.3803 9.112 31.2443 7.936 31.5803 7.66C31.6643 7.6 31.7483 7.384 31.7963 7.324C31.9763 7.12 32.1083 6.988 32.3123 6.904C32.4563 6.844 32.3483 6.652 32.4203 6.652C32.4563 6.652 32.4923 6.676 32.5763 6.724C32.7923 6.88 32.6843 7.12 32.4803 7.24C32.2403 7.384 32.1083 7.768 31.9883 7.924C31.8563 8.104 31.2083 9.028 31.7363 9.028C31.8323 9.028 32.5163 8.86 32.5163 8.86C32.7683 8.776 32.8883 8.692 33.2003 8.692C33.3563 8.692 33.7043 8.344 33.8723 8.176C33.9683 8.092 34.0523 7.66 34.0523 7.66C34.0523 7.588 34.1003 7.444 34.2203 7.324C34.2803 7.264 34.3403 7.216 34.4003 7.156C34.4483 7.108 34.5083 7.084 34.5683 7.084C34.6643 7.084 34.7603 7.144 34.8083 7.24C34.7363 7.24 34.5323 7.48 34.4723 7.588C34.3523 7.816 34.6523 7.756 34.7363 7.756C34.8083 7.492 35.2043 7.408 35.4203 7.24C35.5523 7.132 35.5883 7.156 35.7563 7.156C35.7563 6.904 35.6963 6.832 35.5883 6.832C35.4803 6.832 35.3243 6.916 35.1563 6.976C34.9763 7.048 34.9043 6.976 34.6523 6.976C34.6523 6.556 35.3363 6.472 35.5883 6.472C35.7563 6.472 35.8403 6.472 35.9243 6.556C36.2363 6.916 36.1403 7.132 36.0083 7.24C35.8763 7.336 35.3003 7.78 35.2403 7.84C35.1803 7.9 34.9043 8.008 34.9043 8.176C34.9883 8.176 35.2763 8.26 35.3363 8.308C35.5283 8.488 36.4883 8.848 36.7283 9.088C36.9083 9.28 36.4403 9.796 36.3563 9.796C36.1763 9.796 36.1643 9.844 36.0443 9.976C35.8643 10.168 35.1083 10.096 34.9883 10.228C34.8803 10.336 34.7723 10.372 34.6403 10.372C34.3403 10.372 34.0043 10.144 33.7043 10.144C33.6203 10.144 33.5123 10.036 33.4523 9.976C33.2603 9.772 33.3803 9.268 33.6563 9.268C33.7163 9.268 33.7883 9.292 33.8723 9.364C34.0643 9.544 33.8483 9.364 33.7043 9.46C33.3563 9.724 34.9043 9.544 34.9043 9.796C34.7363 9.796 34.6523 9.796 34.8083 9.892C34.9883 9.976 34.9883 9.544 35.2403 9.544C35.5883 9.544 35.7563 9.364 35.9243 9.292C35.9243 9.208 35.2283 8.992 35.1563 8.956C34.9283 8.86 34.8923 8.752 34.7363 8.692C34.6163 8.644 34.4003 8.428 34.3043 8.428C34.0403 8.428 34.0283 8.5 33.7883 8.608C33.6803 8.656 33.1763 9.052 33.0203 9.148C32.8763 9.232 31.9043 9.664 31.3643 9.664C31.2443 9.664 31.1483 9.652 31.0883 9.604ZM34.7723 3.748C34.7003 3.664 34.4843 3.52 34.7723 3.4C34.8563 3.364 34.9283 3.352 35.0003 3.352C35.4323 3.352 35.7563 3.82 35.6363 3.916C35.5643 3.976 35.1203 3.916 35.1203 3.916C35.0243 3.952 34.9523 3.976 34.9043 3.976C34.8083 3.976 34.7723 3.916 34.7723 3.748ZM32.9603 6.568C32.9363 6.592 32.8523 6.628 32.7563 6.628C32.6603 6.628 32.5523 6.592 32.5043 6.46C32.6363 6.412 32.7443 6.388 32.8283 6.388C32.9843 6.388 33.0443 6.46 32.9603 6.568ZM35.0003 3.772C35.0003 3.772 35.0963 3.82 35.1683 3.82C35.1683 3.82 35.3243 3.82 35.3243 3.772C35.3243 3.676 35.2643 3.64 35.2043 3.64C35.1083 3.64 35.0003 3.712 35.0003 3.772ZM31.9523 7.228C31.8563 7.3 31.9523 7.444 32.0603 7.336C32.1803 7.228 32.0243 7.144 31.9523 7.228ZM38.1312 7.384C37.8192 7.144 38.0232 6.88 38.2632 6.688C38.3472 6.616 38.5032 6.568 38.6232 6.568C38.7552 6.568 38.8632 6.616 38.8632 6.784C38.7672 6.856 38.5632 6.892 38.5632 7.024C38.5632 7.192 38.5392 7.084 39.4272 7.084C39.6312 7.084 40.2072 7.18 40.3272 7.024C40.4952 6.808 40.6992 6.664 40.8312 6.388C40.9032 6.244 40.9512 6.028 41.0592 5.896C41.1672 5.788 41.4192 5.644 41.5632 5.464C41.7312 5.284 41.8032 4.984 41.9952 4.792C42.1512 4.648 42.1392 4.36 42.3912 4.264C42.4632 4.24 42.4872 4.024 42.5592 3.964C42.6912 3.844 42.9552 3.652 42.8592 3.496C42.7992 3.4 42.6912 3.592 42.5592 3.628C42.5592 3.364 42.7512 3.376 42.9552 3.232C43.0512 3.16 43.0512 3.028 43.2192 3.028C43.3872 3.028 43.4472 2.956 43.5552 3.028C43.6752 3.112 43.5312 3.28 43.4232 3.364C43.3272 3.448 43.4472 3.592 43.3512 3.592C43.2552 3.592 43.1232 3.64 43.1232 3.736C43.1232 3.868 42.9552 4.06 42.8592 4.168C42.5112 4.516 42.1152 5.416 41.7552 5.92C41.6472 6.076 41.0232 6.808 41.1312 7.024C41.1552 7.084 41.2152 7.096 41.2752 7.096C41.4552 7.096 41.7192 6.952 41.8872 6.952C42.7632 6.952 43.6512 7.012 44.5152 7.216C45.0072 7.324 45.4992 7.696 45.7152 8.188C45.8952 8.596 46.7472 8.68 46.6152 9.28C46.5072 9.34 46.4352 9.364 46.3632 9.364C46.1592 9.364 46.0392 9.172 45.7872 9.088C45.5112 8.992 45.0552 8.368 44.9112 8.08C44.7672 7.792 43.9152 7.684 43.5552 7.684C43.0992 7.684 42.6192 7.516 42.1632 7.516C41.7312 7.516 41.3232 7.588 40.9272 7.588C40.7232 7.588 40.5072 7.756 40.4592 7.948C40.3752 8.296 40.0872 8.584 39.9312 8.92C39.8832 9.016 39.8952 9.112 39.8352 9.184C39.6312 9.412 39.5712 9.736 39.3672 9.952C39.2352 10.108 39.2952 10.384 39.1032 10.444C38.7312 10.564 38.8032 9.952 38.9712 9.784C39.1992 9.568 39.0792 9.124 39.3312 8.944C39.3912 8.896 39.4272 8.848 39.4272 8.788C39.4272 8.644 39.7872 8.044 39.8952 7.924C40.0872 7.696 39.9192 7.636 39.7032 7.636C39.5592 7.636 39.3912 7.66 39.2952 7.684C38.8632 7.78 38.4792 7.636 38.1312 7.384ZM47.6712 4.06C47.6232 3.892 47.7552 3.88 47.8392 3.844C48.0792 3.748 48.3552 4.168 48.5112 4.3C48.6912 4.444 48.7032 4.792 48.4392 4.792C48.1752 4.792 47.9832 4.384 47.8392 4.228C47.7792 4.168 47.7072 4.192 47.6712 4.06ZM43.7352 2.596C43.7232 2.404 43.3872 2.332 43.4952 2.26C43.6152 2.176 43.7112 2.14 43.7712 2.14C44.0112 2.14 43.9272 2.572 43.6872 2.896C43.6272 2.968 43.4952 2.896 43.4592 2.896C43.4592 2.596 43.7472 2.764 43.7352 2.596ZM41.1432 5.632C40.8912 5.656 41.3472 5.104 41.5152 5.272C41.6112 5.368 41.2872 5.62 41.1432 5.632ZM41.6832 4.936C41.5992 4.864 41.8272 4.48 41.9232 4.528C41.9952 4.564 41.7912 5.032 41.6832 4.936ZM48.5621 8.92C48.4541 8.752 48.4661 8.308 48.5621 8.164C48.6341 8.056 48.7901 7.828 48.8381 7.672C48.9341 7.408 48.6821 7.408 48.5621 7.3C48.5261 7.264 48.5261 7.192 48.5261 7.156C48.6701 7.108 48.7061 7.18 48.7781 7.18C48.8141 7.18 48.8501 7.168 48.8981 7.12C48.9821 7.048 48.9701 6.88 49.0421 6.88C49.0661 6.88 49.1021 6.904 49.1501 6.952C49.3421 7.168 49.1741 7.324 49.1741 7.576C49.1741 7.972 48.7181 8.884 49.6661 8.884C50.0741 8.884 51.1181 8.464 51.6341 8.224C51.8501 8.128 52.2101 8.116 52.3901 7.948C52.4501 7.888 53.9501 7.804 54.1181 7.816C54.6701 7.864 55.1261 8.176 55.6421 8.26C56.3381 8.38 56.9861 8.812 57.7181 8.812C57.8861 8.812 58.3301 8.872 58.4741 8.752C58.6421 8.596 58.5821 8.38 58.7501 8.332C58.9301 8.272 58.9781 8.488 59.0621 8.572C59.1701 8.68 59.2301 8.524 59.3021 8.5C59.4821 8.44 60.0821 8.392 59.9261 8.224C59.8781 8.176 59.8061 8.152 59.7221 8.152C59.5181 8.152 59.2421 8.272 59.0621 8.332C58.8941 8.38 58.8701 8.308 58.9901 8.2C59.1101 8.104 59.2661 8.092 59.4101 8.092C59.5181 8.092 59.5181 7.972 59.5781 7.948C59.7101 7.9 59.9621 7.84 60.1781 7.84C60.4421 7.84 60.6581 7.924 60.6221 8.224C60.5861 8.476 60.4901 8.62 60.7901 8.5C60.9701 8.428 61.0421 8.08 61.2461 7.984C61.3301 7.948 61.4021 7.924 61.4501 7.924C61.7381 7.924 61.4861 8.548 61.4861 8.812C61.4861 9.352 61.2821 9.724 61.7981 10.132C62.1701 10.42 62.5181 10.54 62.9981 10.54C63.1061 10.54 63.4901 10.444 63.7421 10.444C63.8741 10.444 63.9581 10.468 63.9701 10.54C63.6221 10.684 63.3101 10.96 62.9021 10.96C62.4581 10.96 62.2421 10.888 61.8581 10.888C61.0661 10.888 60.6221 9.676 61.1381 8.992C61.1861 8.932 61.4381 8.608 61.2461 8.68C61.1381 8.728 61.0061 8.788 60.9341 8.884C60.8861 8.944 60.8621 9.064 60.7901 9.088C60.6821 9.124 60.5861 9.16 60.5141 9.232C60.3221 9.424 59.7101 9.46 59.3741 9.544C59.2061 9.58 58.9901 9.436 58.8581 9.4C58.6541 9.34 58.3421 9.436 58.1261 9.436C57.5741 9.436 57.0821 9.34 56.5781 9.232C56.2901 9.172 56.1581 9.088 55.8821 9.088C55.5101 9.088 55.1621 8.74 54.8501 8.644C54.3101 8.476 53.9381 8.404 53.3261 8.404C53.0141 8.404 52.8581 8.572 52.5701 8.572C51.8381 8.572 51.1661 9.196 50.4221 9.196C50.2061 9.196 50.0261 9.436 49.7981 9.436C49.1501 9.436 48.9341 9.532 48.5621 8.92ZM59.6261 9.076C59.5781 8.8 59.1341 8.788 59.3501 9.016C59.5061 9.172 59.2781 9.256 59.4701 9.256C59.6981 9.256 59.6861 9.34 59.8061 9.184C59.8901 9.076 60.1901 8.932 60.1901 8.884C60.1901 8.824 60.0701 8.836 60.0341 8.836C59.6621 8.824 59.6501 9.232 59.6261 9.076ZM52.3061 8.14C52.2581 8.188 51.7661 8.38 51.8501 8.416C51.9101 8.44 51.9941 8.452 52.1021 8.452C52.2941 8.452 52.5341 8.392 52.6181 8.212C52.4861 8.212 52.3781 8.068 52.3061 8.14ZM60.1781 8.392C60.1421 8.32 60.1061 8.296 60.0701 8.296C59.9861 8.296 59.9261 8.524 59.9861 8.584C60.0821 8.668 60.2501 8.512 60.1781 8.392ZM52.9421 8.056C52.7981 8.128 52.4741 8.068 52.7141 8.248C52.8101 8.32 52.8941 8.236 52.9901 8.2C53.0621 8.176 53.0861 7.984 52.9421 8.056ZM56.1221 8.764C56.1221 8.764 56.0141 8.848 56.0621 8.896C56.1581 8.992 56.5421 8.764 56.3261 8.764H56.1221ZM59.6741 8.62C59.6021 8.716 59.6381 8.788 59.7101 8.788C59.7701 8.788 59.8421 8.74 59.8781 8.62H59.6741ZM55.0781 8.368C55.0781 8.368 54.9701 8.464 55.0181 8.512C55.1141 8.608 55.3301 8.44 55.0781 8.368ZM53.1341 8.056C53.1341 8.128 53.2421 8.296 53.3381 8.2C53.4341 8.104 53.2661 8.056 53.1341 8.056ZM69.0323 9.448C68.9723 9.568 68.4683 10.144 68.3483 10.144C68.2403 10.144 68.1803 9.952 68.2043 9.82C68.2163 9.7 68.3123 9.712 68.3123 9.592C68.3003 9.532 68.3123 9.472 68.3603 9.424C68.5403 9.112 68.7923 8.8 69.0443 8.5C69.1163 8.404 69.0923 8.308 69.2003 8.236C69.3203 8.164 69.3563 8.152 69.3563 7.996C69.4283 7.852 69.5843 7.78 69.6323 7.612C69.7763 7.108 70.5323 6.424 70.8203 5.836C70.8923 5.692 71.0243 5.476 71.1323 5.332C71.2402 5.2 71.1443 5.104 71.2643 4.984C71.3843 4.852 71.3963 4.96 71.5043 5.02C71.6243 5.092 71.7563 5.032 71.7683 4.888C71.7923 4.768 71.6603 4.672 71.5883 4.576C71.6483 4.516 71.8043 4.552 71.8523 4.6C71.9243 4.672 71.9123 4.84 71.9003 4.948C71.8883 5.044 71.8043 5.116 71.7683 5.212C71.6603 5.464 71.5043 5.716 71.4203 5.992C71.3963 6.1 71.3723 6.184 71.3003 6.28C71.1923 6.424 71.0123 6.604 70.9883 6.784C71.0723 6.808 71.1562 6.82 71.2283 6.82C71.6842 6.82 72.1643 6.484 72.5003 6.256C72.7523 6.112 72.9683 5.932 73.1843 5.74C73.2923 5.632 73.3763 5.524 73.4963 5.428C73.8203 5.176 74.1323 4.828 74.3843 4.492C74.4323 4.432 74.3723 4.372 74.4323 4.3C74.4922 4.252 74.5763 4.18 74.6123 4.096C74.6123 3.928 74.6123 3.904 74.7563 3.796C74.7923 3.688 74.7443 3.448 74.8283 3.556C74.8523 3.628 74.8763 3.7 74.8883 3.628C74.9003 3.496 74.8283 3.424 74.8163 3.364C74.8043 3.28 74.8523 3.196 74.8883 3.112C74.9603 2.872 74.9003 2.8 74.8403 2.584C74.7923 2.392 74.8403 2.332 74.6843 2.176C74.6243 2.104 74.6123 2.02 74.5883 1.936C74.5043 1.936 74.4443 1.9 74.3843 1.84C74.0603 1.564 73.3763 1.312 72.9323 1.312C72.8603 1.312 72.7763 1.312 72.7043 1.348C72.4643 1.456 72.2123 1.66 71.8763 1.768C71.7083 1.828 71.6963 1.804 71.6123 1.96H71.4923C71.5163 2.104 71.4563 2.128 71.4203 2.08C71.3843 2.02 71.4563 1.948 71.3963 1.984C71.2883 2.056 71.0003 2.164 71.0603 2.32C71.1203 2.464 70.8923 2.464 70.8563 2.464C70.8563 2.392 70.9403 2.044 71.0003 2.092C71.0723 2.152 71.3723 1.984 71.2043 1.936C71.1323 1.912 71.0003 2.056 71.0003 1.972C71.0003 1.888 71.1323 1.864 71.1562 1.816C71.2283 1.828 71.3363 1.864 71.3003 1.792C71.2643 1.72 71.2163 1.768 71.2043 1.744C71.3003 1.708 71.2763 1.684 71.3242 1.552C71.3603 1.504 71.3723 1.54 71.4203 1.6C71.4563 1.648 71.5043 1.504 71.6123 1.504C71.8403 1.504 71.8043 1.348 71.6123 1.408C71.5043 1.432 71.5043 1.552 71.4203 1.48C71.3843 1.444 71.7923 1.18 71.8643 1.108C71.9243 1.06 72.0563 0.904 72.1523 0.927999C72.3083 0.964 72.3443 0.808 72.5363 0.844C72.5963 0.819999 72.6203 0.76 72.6683 0.748C72.7283 0.723999 72.7643 0.771999 72.8123 0.784C72.8723 0.819999 72.8603 0.748 72.8963 0.723999C72.9443 0.7 73.5803 0.76 73.6523 0.784C74.0123 0.844 74.3603 1.012 74.6243 1.252C74.7323 1.348 74.9362 1.276 74.9362 1.48C75.0683 1.552 75.0203 1.6 75.1283 1.672C75.3083 1.804 75.5603 2.716 75.4883 2.956C75.4643 3.04 75.3683 3.868 75.3083 3.94C75.2723 3.976 75.2243 3.952 75.2003 4C75.2003 4.42 74.2763 5.752 74.0243 5.788C73.9403 5.8 73.9043 5.968 73.8323 6.028C73.6523 6.172 73.4603 6.364 73.2683 6.472C73.1963 6.532 73.1243 6.604 73.0403 6.652C72.9323 6.712 72.8963 6.64 72.8963 6.784C72.6203 6.868 72.4763 7.168 72.1643 7.192C72.0563 7.24 71.9723 7.288 71.8763 7.36C71.7683 7.336 71.7323 7.336 71.7083 7.456C71.6723 7.612 71.8883 7.792 71.9483 7.924C71.9843 8.128 72.1643 8.272 72.2483 8.464C72.6203 9.244 73.2203 10.036 74.0243 10.396C74.3843 10.576 74.8163 10.6 75.2122 10.588C75.2843 10.576 75.7043 10.6 75.7043 10.684C75.6683 10.756 75.6083 10.684 75.5363 10.66C75.4403 10.732 75.7163 10.792 75.5843 10.876L75.3323 10.984C75.0803 11.092 74.8883 11.164 74.6123 11.14C74.6123 11.176 74.5763 11.2 74.5163 11.2C74.2043 11.2 73.3043 10.816 73.1723 10.732C72.8363 10.516 72.5483 10.18 72.3923 9.808C72.2963 9.808 71.7923 9.016 71.7923 8.908C71.7923 8.764 71.6603 8.86 71.6603 8.692C71.5763 8.536 71.4683 8.296 71.4203 8.104C71.3963 8.02 71.2163 8.008 71.3123 7.96C71.3723 7.936 71.5883 7.912 71.5163 7.768C71.4923 7.732 71.4683 7.708 71.4443 7.708C71.3603 7.708 71.2523 7.876 71.2283 7.924C71.1923 7.72 70.8323 7.348 70.6043 7.348C70.5443 7.348 70.5083 7.396 70.4363 7.492C70.2563 7.708 70.1123 8.068 69.8723 8.248C69.7402 8.356 69.7283 8.392 69.7043 8.572C69.5723 8.908 69.2243 9.112 69.0323 9.448ZM73.3283 5.86C73.2323 6.064 73.3283 6.04 73.5323 5.956C73.6403 5.908 73.5443 5.86 73.6283 5.812C73.7483 5.752 73.9643 5.656 73.8443 5.62C73.4123 5.464 73.5443 5.956 73.4483 5.884C73.4003 5.824 73.3643 5.8 73.3283 5.86ZM71.3483 1.696C71.3242 1.72 71.3363 1.756 71.3963 1.744C71.4443 1.732 71.4683 1.624 71.5163 1.672C71.5523 1.708 71.5043 1.756 71.4923 1.792C71.5643 1.792 71.6363 1.816 71.6842 1.768C71.7923 1.66 71.7443 1.576 71.6243 1.576C71.5523 1.576 71.4563 1.612 71.3483 1.696ZM71.4203 2.38C71.3843 2.536 71.1923 2.488 71.2523 2.32C71.2883 2.224 71.3123 2.212 71.3003 2.104C71.4323 2.164 71.4443 2.272 71.4203 2.38ZM71.0243 2.728C70.9163 2.728 70.9043 2.644 70.9643 2.584C71.0723 2.596 71.0963 2.608 71.1803 2.656C71.1443 2.692 71.0843 2.728 71.0243 2.728ZM70.7603 2.788C70.7603 2.632 70.7603 2.632 70.8323 2.668C70.8323 2.692 70.8443 2.716 70.8563 2.74C70.8443 2.848 70.7963 2.884 70.7603 2.788ZM71.2763 2.536C71.2402 2.572 71.2043 2.596 71.1323 2.536C71.1683 2.44 71.2283 2.452 71.2763 2.536ZM76.1214 9.616C76.0014 9.52 76.0374 9.1 76.0734 8.968C76.1574 8.68 76.2054 8.464 76.3374 8.212L76.6854 7.588C76.8174 7.408 77.1534 6.976 77.3814 6.976C77.5014 6.904 77.4414 6.76 77.6214 6.724C77.6214 6.76 77.8494 6.628 77.8734 6.628C78.0174 6.532 78.2454 6.688 78.3654 6.748C78.5934 6.868 78.8454 7.036 78.6174 7.36C78.5934 7.396 78.5214 7.468 78.4854 7.612C78.4614 7.732 78.3534 7.84 78.3054 7.672C78.4374 7.672 78.4374 7.636 78.4254 7.528C78.4134 7.408 78.3774 7.648 78.3054 7.6C78.1854 7.516 78.2094 7.372 78.1494 7.252C78.0894 7.156 77.9814 7.204 77.8854 7.252C77.8014 7.3 77.7294 7.348 77.6454 7.384C77.5974 7.312 77.5254 7.204 77.4534 7.264C77.4054 7.3 77.6934 7.456 77.6214 7.48C77.1414 7.624 77.1774 8.08 76.8774 8.428C76.7574 8.572 76.7214 8.776 76.6854 8.956C76.6254 9.184 76.5294 9.508 76.8534 9.364C76.9254 9.328 77.0094 9.328 77.0694 9.292C77.4534 9.088 77.7294 8.812 78.0054 8.524C78.1614 8.356 78.2574 8.176 78.4134 8.032C78.5814 7.876 78.7014 7.84 78.7614 7.624C78.8934 7.432 79.1094 7.36 79.2774 7.204C79.3974 7.096 79.4574 7.012 79.6254 6.988C79.7574 6.964 79.8414 7.204 79.8654 7.324C79.8894 7.504 79.8054 7.612 79.7574 7.768C79.5654 8.296 79.3734 8.5 79.3014 8.98C79.2774 9.1 79.3494 9.268 79.3854 9.388C79.4334 9.544 79.5294 9.736 79.7334 9.724C79.8174 9.724 79.9854 9.676 80.1054 9.676C80.1774 9.676 80.2134 9.7 80.1894 9.76C80.1654 9.808 80.1054 9.712 80.0694 9.736C79.9734 9.808 80.1414 9.904 80.0214 9.94L79.8174 10.06C79.6734 10.168 79.5294 10.252 79.3374 10.192C79.0374 10.096 78.8094 9.808 78.7494 9.484C78.7134 9.316 78.7494 9.124 78.7374 8.956C78.7374 8.812 78.8334 8.788 78.9414 8.692C79.0854 8.572 79.3374 8.416 79.2054 8.26C79.1574 8.212 79.1454 8.188 79.1334 8.188C79.0974 8.188 79.1334 8.344 79.0494 8.524C79.0254 8.584 78.9054 8.356 78.7374 8.452C78.6534 8.512 78.6054 8.5 78.6174 8.572C78.6294 8.704 77.9094 9.268 77.7414 9.352C77.5974 9.412 77.5974 9.28 77.5014 9.34C77.3934 9.412 77.4054 9.448 77.3094 9.436C77.1054 9.412 76.9614 9.424 77.0694 9.568C77.1294 9.64 77.1534 9.4 77.2014 9.508C77.2614 9.64 77.1534 9.616 77.2614 9.616C77.3334 9.616 77.4054 9.568 77.4414 9.628C77.5134 9.748 76.9974 9.904 76.8534 9.952C76.7814 9.976 76.7094 9.988 76.6374 9.988C76.5414 9.988 76.4574 9.976 76.3854 9.952C76.2414 9.904 76.2294 9.712 76.1214 9.616ZM78.5934 7.768C78.5454 7.648 78.5574 7.6 78.6654 7.504C78.7254 7.54 78.6894 7.504 78.7134 7.576C78.6654 7.636 78.6174 7.828 78.5934 7.768ZM77.7654 9.508C77.7534 9.604 77.7174 9.568 77.6934 9.46C77.8014 9.352 77.7774 9.376 77.7654 9.508ZM79.6385 14.812C79.2665 14.812 79.0505 14.176 79.0505 13.876C79.0505 12.904 80.1785 11.848 80.8625 11.308C81.2345 11.008 81.7865 10.66 81.7865 10.372C81.7865 10.072 81.6065 9.748 81.6065 9.46C81.6065 9.208 81.7265 9.268 81.7265 9.112C81.7265 8.692 81.8945 8.248 82.1585 7.924C82.4705 7.552 82.7105 7.048 83.0825 6.724C83.3705 6.484 84.0305 6.064 84.4145 6.064C84.9545 6.064 85.4705 6.82 85.4705 7.396C85.4705 7.552 85.3865 8.224 85.2905 8.224C85.2305 8.224 85.2185 8.02 85.2185 7.936C85.2185 7.576 85.0505 6.928 84.5465 6.928C84.4505 6.928 84.4265 6.796 84.3185 6.796C84.2105 6.796 84.1505 6.952 84.0665 6.952C84.0185 6.952 83.9705 6.892 83.9705 6.832C83.9705 6.688 84.3065 6.676 84.3065 6.568C84.3065 6.508 84.2345 6.412 84.0785 6.412C83.6945 6.412 83.9465 6.94 83.6825 7.084C82.9385 7.492 82.1945 8.872 82.1945 9.784C82.1945 9.976 82.1825 10.312 82.3625 10.312C82.5065 10.312 83.3705 10 83.4785 9.916C83.6945 9.748 84.7865 9.328 85.0745 9.22C87.6545 8.248 88.5305 7.948 88.5305 7.684C88.5305 7.648 88.5065 7.636 88.4825 7.636C88.4105 7.636 88.2905 7.804 88.2065 7.804C88.1705 7.804 88.1345 7.768 88.1345 7.66C88.1345 7.468 88.3505 7.36 88.7345 7.36C89.2505 7.36 89.8025 7.42 89.7665 8.056C90.1505 8.056 90.5825 7.684 90.8465 7.684C90.9785 7.684 91.0385 7.768 91.0385 7.876C91.0385 8.164 90.4745 8.584 90.4745 8.704C90.4745 8.752 90.4985 8.884 90.6065 8.884C90.9665 8.884 91.3745 8.908 91.7585 8.8C92.1425 8.692 93.1985 8.68 93.9665 8.68C94.0985 8.68 94.2185 8.74 94.3745 8.74C94.5185 8.74 94.6625 8.68 94.8065 8.68C95.4545 8.704 96.2225 9.208 96.6785 9.208C96.8825 9.208 97.0865 9.076 97.3145 9.076C97.3985 9.076 97.4825 9.112 97.5665 9.112C97.7225 9.112 97.8665 8.992 98.0105 8.992C98.2985 8.992 98.5625 8.968 98.8385 8.968C99.6905 8.968 100.338 8.92 100.95 9.688C101.094 9.868 101.394 9.772 101.394 10C101.394 10.24 101.142 10.348 100.938 10.348C100.674 10.348 100.35 10.18 100.35 9.88C100.35 9.736 99.7985 9.508 99.0185 9.508C98.8265 9.508 98.5985 9.544 98.3945 9.544C98.1785 9.544 97.9745 9.52 97.7585 9.52C97.5905 9.52 97.3985 9.628 97.2425 9.688C97.0625 9.748 96.8825 9.712 96.7145 9.76C96.6305 9.784 96.5225 9.82 96.4265 9.82C96.2105 9.82 96.1625 9.7 96.0425 9.64C95.8865 9.556 94.9865 9.196 94.7585 9.196C94.6025 9.196 94.4465 9.244 94.3145 9.244C94.0985 9.244 93.9545 9.196 93.8105 9.196C92.7665 9.196 91.6985 9.448 90.6545 9.448C90.4505 9.448 89.8985 9.376 89.8985 9.004C89.8985 8.74 90.6065 8.548 90.6065 8.284C90.6065 8.236 90.5345 8.224 90.5105 8.224C90.2705 8.224 89.4545 8.932 89.0225 8.932C88.6745 8.932 88.2305 8.668 88.0625 8.668C87.7025 8.668 86.5625 9.4 86.0825 9.544C85.8425 9.628 85.4105 9.604 85.2425 9.748C84.8465 10.072 83.3705 10.564 82.8185 10.708C82.5905 10.768 82.4705 10.96 82.4585 11.176C82.4105 12.484 80.9825 14.812 79.6385 14.812ZM79.5665 13.864C79.5665 14.068 79.7465 14.356 79.8665 14.356C80.7905 14.356 81.7025 11.86 81.8825 11.176C81.6425 11.164 81.3665 11.488 81.1625 11.644C80.5865 12.1 79.5665 13.036 79.5665 13.864ZM88.8545 8.344C88.8545 8.488 89.0705 8.596 89.2505 8.596C89.4185 8.596 89.5265 8.512 89.5385 8.32C89.3705 8.224 89.1665 8.188 88.9625 8.188C88.8905 8.188 88.8545 8.296 88.8545 8.344ZM103.387 8.656C103.387 8.464 103.615 8.128 103.699 8.056C103.831 7.912 103.987 7.648 104.191 7.54C104.395 7.348 104.695 7.492 104.515 7.24C104.455 7.144 104.455 6.976 104.455 6.88C104.455 6.76 104.539 6.76 104.539 6.76C105.139 6.76 104.095 8.464 103.987 8.764C104.299 8.764 105.139 8.716 105.307 8.584C105.571 8.392 105.871 8.212 106.147 8.08C106.411 7.948 107.047 7.468 107.131 7.384C107.635 6.868 108.367 6.376 108.931 5.608C108.967 5.56 108.991 5.548 109.015 5.548C109.075 5.548 109.087 5.728 109.195 5.728C109.231 5.728 109.267 5.704 109.327 5.668C109.423 5.584 109.279 5.404 109.195 5.368C109.231 5.368 109.423 5.128 109.471 5.08C110.107 4.516 110.503 4.096 110.959 3.46C111.187 3.172 111.499 3.04 111.655 2.668C111.727 2.488 111.931 2.332 112.123 2.332C112.195 2.332 112.279 2.368 112.339 2.428C112.423 2.536 112.519 2.68 112.495 2.8C112.495 2.8 112.087 3.52 112.039 3.556C111.583 4.132 111.199 4.804 110.587 5.512C110.455 5.692 110.083 6.136 109.939 6.376C109.831 6.52 109.771 6.844 109.723 7.036C110.155 7.048 110.527 6.88 110.947 6.844C111.355 6.76 111.727 6.592 112.183 6.58C112.363 6.568 112.531 6.616 112.483 6.76C112.447 6.832 112.459 6.652 112.387 6.7C112.231 6.784 112.039 6.7 112.015 6.808C111.979 6.988 112.183 6.892 112.171 6.988C112.123 7.24 112.027 7.072 111.691 7.108C111.631 7.12 111.787 6.832 111.559 6.832C111.511 6.832 111.439 6.844 111.355 6.88C111.103 6.976 111.511 7.12 111.439 7.204C111.223 7.408 110.419 7.456 110.059 7.564C109.903 7.612 109.159 8.008 109.135 8.272C109.087 8.788 109.015 9.052 108.919 9.46C108.907 9.58 108.643 9.724 108.655 9.844C108.655 9.904 108.907 10.444 108.523 10.252C108.523 10.216 108.583 10.252 108.631 10.216C108.679 10.144 108.559 10.12 108.511 10.156C108.475 10.048 108.463 9.736 108.463 9.376C108.463 8.86 108.499 8.272 108.583 8.08C108.655 7.972 106.951 7.72 106.843 7.792C106.315 8.116 106.663 8.188 106.243 8.452C105.571 8.896 105.091 8.884 104.707 9.268C104.563 9.412 104.599 9.376 104.299 9.376C104.191 9.376 104.047 9.424 103.903 9.424C103.783 9.424 103.675 9.388 103.591 9.268C103.531 9.196 103.387 8.968 103.387 8.656ZM108.223 6.952C108.139 7.012 107.527 7.012 107.539 7.156C107.551 7.276 107.791 7.324 108.055 7.324C108.403 7.324 108.811 7.252 108.835 7.204C109.015 6.592 109.903 5.764 109.483 5.764C108.523 5.764 108.799 6.52 108.223 6.952ZM106.747 3.232C106.627 3.076 107.047 3.148 106.951 2.968C106.771 2.644 106.711 2.56 106.927 2.344C107.059 2.2 107.503 2.548 107.551 2.68C107.587 2.764 107.659 2.968 107.659 3.076C107.659 3.34 107.563 3.412 107.455 3.412C107.347 3.412 107.215 3.34 107.155 3.28C107.083 3.196 106.819 3.34 106.747 3.232Z" fill="white"/>
</svg>
