<svg width="60" height="13" viewBox="0 0 60 13" fill="none" xmlns="http://www.w3.org/2000/svg">
<path d="M4.548 12.1679C3.764 12.1679 3.08 11.9799 2.496 11.6039C1.912 11.2199 1.46 10.6919 1.14 10.0199C0.820004 9.33994 0.660004 8.55594 0.660004 7.66794C0.660004 6.77194 0.820004 5.98794 1.14 5.31594C1.468 4.63594 1.916 4.10794 2.484 3.73194C3.052 3.35594 3.704 3.16794 4.44 3.16794C5 3.16794 5.528 3.27594 6.024 3.49194C6.52 3.69994 6.916 3.98394 7.212 4.34394C7.172 4.48794 7.076 4.64394 6.924 4.81194C6.78 4.97194 6.636 5.08394 6.492 5.14794C6.244 4.85994 5.948 4.63994 5.604 4.48794C5.268 4.32794 4.9 4.24794 4.5 4.24794C3.956 4.24794 3.48 4.38794 3.072 4.66794C2.672 4.94794 2.36 5.34394 2.136 5.85594C1.92 6.35994 1.812 6.95994 1.812 7.65594C1.812 8.35994 1.924 8.97194 2.148 9.49194C2.38 10.0039 2.7 10.3999 3.108 10.6799C3.524 10.9519 4.008 11.0879 4.56 11.0879C5.432 11.0879 6.128 10.7559 6.648 10.0919C6.776 10.1479 6.916 10.2439 7.068 10.3799C7.228 10.5079 7.348 10.6399 7.428 10.7759C7.132 11.2159 6.732 11.5599 6.228 11.8079C5.724 12.0479 5.164 12.1679 4.548 12.1679Z" fill="#D4D4D4"/>
<path d="M8.66335 9.88794C8.35135 9.65594 8.17535 9.33594 8.13535 8.92794C8.51935 8.69594 8.87135 8.41994 9.19135 8.09994V2.65194C9.19135 1.85194 9.35935 1.23594 9.69535 0.803943C10.0313 0.371943 10.5153 0.159943 11.1473 0.167943C11.7233 0.175943 12.1713 0.399943 12.4913 0.839943C12.8193 1.27994 12.9833 1.85194 12.9833 2.55594C12.9833 3.17994 12.8953 3.82394 12.7193 4.48794C12.5433 5.14394 12.2753 5.79994 11.9153 6.45594C11.9873 6.44794 12.0633 6.44394 12.1433 6.44394C12.7433 6.44394 13.2193 6.65594 13.5713 7.07994C13.9313 7.50394 14.1113 8.07194 14.1113 8.78394V9.81594C14.1113 10.2799 14.1673 10.6159 14.2793 10.8239C14.3993 11.0319 14.5953 11.1359 14.8673 11.1359C14.9953 11.1359 15.0873 11.1879 15.1433 11.2919C15.1993 11.3879 15.2273 11.5119 15.2273 11.6639C15.2273 11.8159 15.1873 11.9359 15.1073 12.0239C15.0353 12.1199 14.9313 12.1679 14.7953 12.1679C14.2193 12.1679 13.7753 11.9839 13.4633 11.6159C13.1593 11.2399 13.0073 10.7119 13.0073 10.0319V8.75994C13.0073 8.35194 12.9153 8.03594 12.7313 7.81194C12.5553 7.57994 12.3033 7.46394 11.9753 7.46394C11.6553 7.46394 11.3673 7.57194 11.1113 7.78794C10.8553 7.99594 10.6513 8.28394 10.4993 8.65194C10.3473 9.01994 10.2673 9.44394 10.2593 9.92394V11.9999C10.1793 12.0239 10.0913 12.0439 9.99535 12.0599C9.89935 12.0759 9.80735 12.0839 9.71935 12.0839C9.54335 12.0839 9.36735 12.0559 9.19135 11.9999V9.51594C8.98335 9.69194 8.80735 9.81594 8.66335 9.88794ZM10.2233 2.63994V7.30794C10.7913 6.47594 11.2233 5.65594 11.5193 4.84794C11.8153 4.03194 11.9633 3.26394 11.9633 2.54394C11.9633 2.09594 11.8873 1.75594 11.7353 1.52394C11.5913 1.28394 11.3793 1.16394 11.0993 1.16394C10.5153 1.16394 10.2233 1.65594 10.2233 2.63994Z" fill="#D4D4D4"/>
<path d="M14.7985 12.1679C14.6945 12.1679 14.6105 12.1199 14.5465 12.0239C14.4825 11.9279 14.4505 11.8039 14.4505 11.6519C14.4505 11.3079 14.5945 11.1359 14.8825 11.1359C15.2345 11.1359 15.5465 10.9919 15.8185 10.7039C16.0985 10.4079 16.3185 10.0079 16.4785 9.50394C16.6465 8.99994 16.7305 8.43994 16.7305 7.82394C16.7305 7.67994 16.7225 7.54794 16.7065 7.42794C16.6905 7.30794 16.6705 7.20794 16.6465 7.12794C16.5745 7.05594 16.4945 6.93994 16.4065 6.77994C16.3265 6.61994 16.2545 6.45194 16.1905 6.27594C16.1345 6.09194 16.1065 5.94394 16.1065 5.83194C16.2025 5.67994 16.3545 5.56394 16.5625 5.48394C16.7785 5.39594 17.0145 5.37194 17.2705 5.41194C17.4225 5.69194 17.5465 6.04394 17.6425 6.46794C17.8825 6.45994 18.2065 6.40794 18.6145 6.31194C18.8705 6.25594 19.0745 6.21994 19.2265 6.20394C19.3865 6.17994 19.5225 6.16794 19.6345 6.16794C20.0665 6.16794 20.4065 6.33194 20.6545 6.65994C20.9025 6.97994 21.0265 7.41594 21.0265 7.96794V9.89994C21.0265 10.3639 21.0865 10.6879 21.2065 10.8719C21.3345 11.0479 21.5185 11.1359 21.7585 11.1359C21.8705 11.1359 21.9545 11.1839 22.0105 11.2799C22.0745 11.3759 22.1065 11.5039 22.1065 11.6639C22.1065 11.7919 22.0705 11.9079 21.9985 12.0119C21.9345 12.1159 21.8265 12.1679 21.6745 12.1679C21.1865 12.1679 20.7745 12.0039 20.4385 11.6759C20.1025 11.3399 19.9345 10.7919 19.9345 10.0319V8.17194C19.9345 7.81194 19.8945 7.55994 19.8145 7.41594C19.7345 7.27194 19.5905 7.19994 19.3825 7.19994C19.3105 7.19994 19.2305 7.20794 19.1425 7.22394C19.0545 7.23994 18.8985 7.27194 18.6745 7.31994C18.2825 7.39994 17.9865 7.44794 17.7865 7.46394C17.7945 7.59194 17.7985 7.71994 17.7985 7.84794C17.7985 8.71194 17.6745 9.46794 17.4265 10.1159C17.1785 10.7639 16.8265 11.2679 16.3705 11.6279C15.9225 11.9879 15.3985 12.1679 14.7985 12.1679Z" fill="#D4D4D4"/>
<path d="M21.7614 11.1359C21.9294 11.1359 22.1094 11.0839 22.3014 10.9799C22.4934 10.8759 22.6734 10.7159 22.8414 10.4999C23.0414 10.2279 23.1854 9.91594 23.2734 9.56394C23.3694 9.21194 23.4294 8.85594 23.4534 8.49594V6.33594C23.5254 6.31194 23.6094 6.29194 23.7054 6.27594C23.8014 6.25994 23.9014 6.25194 24.0054 6.25194C24.1894 6.25194 24.3694 6.27994 24.5454 6.33594V9.79194C24.5454 10.2159 24.6094 10.5479 24.7374 10.7879C24.8734 11.0199 25.0974 11.1359 25.4094 11.1359C25.5454 11.1359 25.6374 11.1919 25.6854 11.3039C25.7334 11.4159 25.7574 11.5359 25.7574 11.6639C25.7574 11.7919 25.7214 11.9079 25.6494 12.0119C25.5854 12.1159 25.4774 12.1679 25.3254 12.1679C24.4934 12.1679 23.9534 11.7759 23.7054 10.9919C23.5934 11.1759 23.4734 11.3319 23.3454 11.4599C23.1294 11.6759 22.8774 11.8479 22.5894 11.9759C22.3094 12.1039 22.0054 12.1679 21.6774 12.1679C21.5654 12.1679 21.4814 12.1119 21.4254 11.9999C21.3614 11.8959 21.3294 11.7799 21.3294 11.6519C21.3294 11.5159 21.3654 11.3959 21.4374 11.2919C21.5014 11.1879 21.6094 11.1359 21.7614 11.1359ZM24.0294 4.30794C23.8054 4.30794 23.6134 4.22794 23.4534 4.06794C23.2934 3.90794 23.2134 3.71594 23.2134 3.49194C23.2134 3.25994 23.2894 3.06794 23.4414 2.91594C23.6014 2.75594 23.7974 2.67594 24.0294 2.67594C24.2614 2.67594 24.4534 2.75594 24.6054 2.91594C24.7654 3.06794 24.8454 3.25994 24.8454 3.49194C24.8454 3.71594 24.7654 3.90794 24.6054 4.06794C24.4534 4.22794 24.2614 4.30794 24.0294 4.30794Z" fill="#D4D4D4"/>
<path d="M25.322 12.1679C25.218 12.1679 25.134 12.1199 25.07 12.0239C25.006 11.9279 24.974 11.8039 24.974 11.6519C24.974 11.3079 25.118 11.1359 25.406 11.1359C25.662 11.1359 25.946 10.9799 26.258 10.6679C26.57 10.3479 26.934 9.83594 27.35 9.13194L28.634 6.95994C28.618 6.84794 28.61 6.72794 28.61 6.59994C28.61 6.19994 28.682 5.90394 28.826 5.71194C28.978 5.51994 29.102 5.40394 29.198 5.36394C29.334 5.33194 29.478 5.33594 29.63 5.37594C29.79 5.40794 29.934 5.46394 30.062 5.54394C30.19 5.62394 30.278 5.71994 30.326 5.83194C30.294 5.97594 30.234 6.14794 30.146 6.34794C30.058 6.54794 29.918 6.81594 29.726 7.15194C29.782 7.23994 29.854 7.32794 29.942 7.41594C30.03 7.50394 30.138 7.59994 30.266 7.70394L31.178 8.44794C31.506 8.71194 31.75 8.98794 31.91 9.27594C32.078 9.55594 32.162 9.87194 32.162 10.2239C32.162 10.6479 32.042 11.0239 31.802 11.3519C31.842 11.4399 31.862 11.5439 31.862 11.6639C31.862 11.8159 31.822 11.9359 31.742 12.0239C31.67 12.1199 31.566 12.1679 31.43 12.1679C31.302 12.1679 31.178 12.1599 31.058 12.1439C30.938 12.1279 30.806 12.1079 30.662 12.0839C30.446 12.1399 30.218 12.1679 29.978 12.1679C29.698 12.1679 29.418 12.1239 29.138 12.0359C28.858 11.9559 28.566 11.8239 28.262 11.6399C28.246 11.2159 28.406 10.9039 28.742 10.7039C29.182 10.9919 29.598 11.1359 29.99 11.1359C30.326 11.1359 30.594 11.0479 30.794 10.8719C30.994 10.6879 31.094 10.4559 31.094 10.1759C31.094 9.82394 30.902 9.49594 30.518 9.19194L29.606 8.47194C29.446 8.34394 29.302 8.21194 29.174 8.07594L27.974 10.1039C27.534 10.8479 27.11 11.3799 26.702 11.6999C26.302 12.0119 25.842 12.1679 25.322 12.1679Z" fill="#D4D4D4"/>
<path d="M31.459 12.1679C31.347 12.1679 31.255 12.1199 31.183 12.0239C31.111 11.9279 31.075 11.8039 31.075 11.6519C31.075 11.4919 31.115 11.3679 31.195 11.2799C31.275 11.1919 31.379 11.1479 31.507 11.1479C32.139 11.1479 32.695 10.9839 33.175 10.6559C33.663 10.3279 34.047 9.87594 34.327 9.29994C34.607 8.72394 34.747 8.06394 34.747 7.31994V6.16794H33.859C33.803 6.03994 33.775 5.87994 33.775 5.68794C33.775 5.49594 33.803 5.33594 33.859 5.20794H34.747V3.08394C34.899 3.02794 35.083 2.99994 35.299 2.99994C35.491 2.99994 35.675 3.02794 35.851 3.08394V5.20794H37.639C37.703 5.33594 37.735 5.49594 37.735 5.68794C37.735 5.87994 37.703 6.03994 37.639 6.16794H35.851V8.65194C35.851 9.45194 35.971 10.0679 36.211 10.4999C36.459 10.9239 36.807 11.1359 37.255 11.1359C37.487 11.1359 37.603 11.3119 37.603 11.6639C37.603 11.8159 37.563 11.9359 37.483 12.0239C37.411 12.1199 37.307 12.1679 37.171 12.1679C36.619 12.1679 36.159 12.0039 35.791 11.6759C35.423 11.3399 35.159 10.8759 34.999 10.2839C34.623 10.8759 34.131 11.3399 33.523 11.6759C32.923 12.0039 32.235 12.1679 31.459 12.1679Z" fill="#D4D4D4"/>
<path d="M37.2536 11.1359C37.4216 11.1359 37.6016 11.0839 37.7936 10.9799C37.9856 10.8759 38.1656 10.7159 38.3336 10.4999C38.5336 10.2279 38.6776 9.91594 38.7656 9.56394C38.8616 9.21194 38.9216 8.85594 38.9456 8.49594V6.33594C39.0176 6.31194 39.1016 6.29194 39.1976 6.27594C39.2936 6.25994 39.3936 6.25194 39.4976 6.25194C39.6816 6.25194 39.8616 6.27994 40.0376 6.33594V9.79194C40.0376 10.2159 40.1016 10.5479 40.2296 10.7879C40.3656 11.0199 40.5896 11.1359 40.9016 11.1359C41.0376 11.1359 41.1296 11.1919 41.1776 11.3039C41.2256 11.4159 41.2496 11.5359 41.2496 11.6639C41.2496 11.7919 41.2136 11.9079 41.1416 12.0119C41.0776 12.1159 40.9696 12.1679 40.8176 12.1679C39.9856 12.1679 39.4456 11.7759 39.1976 10.9919C39.0856 11.1759 38.9656 11.3319 38.8376 11.4599C38.6216 11.6759 38.3696 11.8479 38.0816 11.9759C37.8016 12.1039 37.4976 12.1679 37.1696 12.1679C37.0576 12.1679 36.9736 12.1119 36.9176 11.9999C36.8536 11.8959 36.8216 11.7799 36.8216 11.6519C36.8216 11.5159 36.8576 11.3959 36.9296 11.2919C36.9936 11.1879 37.1016 11.1359 37.2536 11.1359ZM39.5216 4.30794C39.2976 4.30794 39.1056 4.22794 38.9456 4.06794C38.7856 3.90794 38.7056 3.71594 38.7056 3.49194C38.7056 3.25994 38.7816 3.06794 38.9336 2.91594C39.0936 2.75594 39.2896 2.67594 39.5216 2.67594C39.7536 2.67594 39.9456 2.75594 40.0976 2.91594C40.2576 3.06794 40.3376 3.25994 40.3376 3.49194C40.3376 3.71594 40.2576 3.90794 40.0976 4.06794C39.9456 4.22794 39.7536 4.30794 39.5216 4.30794Z" fill="#D4D4D4"/>
<path d="M40.8142 12.1679C40.7102 12.1679 40.6262 12.1199 40.5622 12.0239C40.4982 11.9279 40.4662 11.8039 40.4662 11.6519C40.4662 11.3079 40.6102 11.1359 40.8982 11.1359C41.1542 11.1359 41.3822 11.0079 41.5822 10.7519C41.7902 10.4879 41.9702 10.0519 42.1222 9.44394L42.4822 8.03994C42.8182 6.79194 43.4582 6.16794 44.4022 6.16794C44.7622 6.16794 45.0662 6.27594 45.3142 6.49194C45.5622 6.69994 45.7342 6.98394 45.8302 7.34394C46.0542 6.96794 46.3422 6.67994 46.6942 6.47994C47.0462 6.27194 47.4382 6.16794 47.8702 6.16794C48.4942 6.16794 48.9742 6.37194 49.3102 6.77994C49.6542 7.18794 49.8262 7.75994 49.8262 8.49594V9.89994C49.8262 10.3639 49.8862 10.6879 50.0062 10.8719C50.1342 11.0479 50.3182 11.1359 50.5582 11.1359C50.6702 11.1359 50.7542 11.1839 50.8102 11.2799C50.8742 11.3759 50.9062 11.5039 50.9062 11.6639C50.9062 11.7919 50.8702 11.9079 50.7982 12.0119C50.7342 12.1159 50.6262 12.1679 50.4742 12.1679C49.9862 12.1679 49.5742 12.0039 49.2382 11.6759C48.9022 11.3399 48.7342 10.7919 48.7342 10.0319V8.49594C48.7342 7.63194 48.3942 7.19994 47.7142 7.19994C47.3622 7.19994 47.0502 7.33994 46.7782 7.61994C46.5142 7.89994 46.3062 8.28794 46.1542 8.78394C46.0102 9.27994 45.9382 9.85594 45.9382 10.5119V11.9999C45.8582 12.0239 45.7702 12.0439 45.6742 12.0599C45.5782 12.0759 45.4862 12.0839 45.3982 12.0839C45.2062 12.0839 45.0262 12.0559 44.8582 11.9999V8.17194C44.8582 7.52394 44.6742 7.19994 44.3062 7.19994C44.1382 7.19994 43.9942 7.27594 43.8742 7.42794C43.7542 7.57994 43.6502 7.82394 43.5622 8.15994L43.1182 9.88794C42.9102 10.6799 42.6222 11.2599 42.2542 11.6279C41.8862 11.9879 41.4062 12.1679 40.8142 12.1679Z" fill="#D4D4D4"/>
<path d="M50.5544 11.1359C50.8264 11.1359 51.0904 11.0039 51.3464 10.7399C51.6104 10.4679 51.8304 10.1039 52.0064 9.64794C51.9984 9.53594 51.9944 9.42394 51.9944 9.31194C51.9944 8.70394 52.1144 8.16394 52.3544 7.69194C52.5944 7.21994 52.9184 6.84794 53.3264 6.57594C53.7424 6.30394 54.2144 6.16794 54.7424 6.16794C55.0224 6.16794 55.2984 6.22394 55.5704 6.33594C55.8424 6.43994 56.0704 6.58394 56.2544 6.76794V6.27594C56.3264 6.25194 56.4104 6.23194 56.5064 6.21594C56.6024 6.19994 56.7024 6.19194 56.8064 6.19194C56.9984 6.19194 57.1784 6.21994 57.3464 6.27594V9.79194C57.3464 10.2159 57.4104 10.5479 57.5384 10.7879C57.6744 11.0199 57.8984 11.1359 58.2104 11.1359C58.2984 11.1359 58.3944 11.1159 58.4984 11.0759C58.6024 11.0359 58.7104 10.9759 58.8224 10.8959C58.9584 10.9599 59.0704 11.0719 59.1584 11.2319C59.2464 11.3839 59.2864 11.5359 59.2784 11.6879C59.1504 11.8319 58.9864 11.9479 58.7864 12.0359C58.5864 12.1239 58.3704 12.1679 58.1384 12.1679H58.1264C57.3424 12.1679 56.8184 11.8159 56.5544 11.1119C56.3224 11.4399 56.0304 11.6999 55.6784 11.8919C55.3344 12.0759 54.9504 12.1679 54.5264 12.1679C54.0624 12.1679 53.6504 12.0679 53.2904 11.8679C52.9384 11.6599 52.6504 11.3759 52.4264 11.0159C51.9304 11.7839 51.2784 12.1679 50.4704 12.1679C50.3664 12.1679 50.2824 12.1199 50.2184 12.0239C50.1544 11.9279 50.1224 11.8039 50.1224 11.6519C50.1224 11.3079 50.2664 11.1359 50.5544 11.1359ZM53.1104 9.31194C53.1104 9.87994 53.2384 10.3279 53.4944 10.6559C53.7584 10.9759 54.1184 11.1359 54.5744 11.1359C55.0784 11.1359 55.4824 10.9519 55.7864 10.5839C56.0984 10.2079 56.2544 9.71594 56.2544 9.10794V7.91994C56.0944 7.70394 55.8904 7.53194 55.6424 7.40394C55.3944 7.26794 55.1384 7.19994 54.8744 7.19994C54.5304 7.19994 54.2264 7.29194 53.9624 7.47594C53.6984 7.65994 53.4904 7.91194 53.3384 8.23194C53.1864 8.54394 53.1104 8.90394 53.1104 9.31194Z" fill="#D4D4D4"/>
</svg>
